<svg width="512" height="512" viewBox="0 0 512 512" fill="none" xmlns="http://www.w3.org/2000/svg">
<path d="M46.1866 243.52C46.1866 299.166 68.2919 352.533 107.64 391.88C146.987 431.228 200.354 453.333 256 453.333C311.646 453.333 365.013 431.228 404.36 391.88C443.708 352.533 465.813 299.166 465.813 243.52C465.813 187.874 443.708 134.507 404.36 95.1596C365.013 55.8119 311.646 33.7067 256 33.7067C200.354 33.7067 146.987 55.8119 107.64 95.1596C68.2919 134.507 46.1866 187.874 46.1866 243.52Z" fill="#02A7DA"/>
<path d="M46.1866 243.52C46.1866 299.166 68.2919 352.533 107.64 391.88C146.987 431.228 200.354 453.333 256 453.333C311.646 453.333 365.013 431.228 404.36 391.88C443.708 352.533 465.813 299.166 465.813 243.52C465.813 187.874 443.708 134.507 404.36 95.1596C365.013 55.8119 311.646 33.7067 256 33.7067C200.354 33.7067 146.987 55.8119 107.64 95.1596C68.2919 134.507 46.1866 187.874 46.1866 243.52Z" stroke="#006B76" stroke-width="0.5" stroke-linecap="round" stroke-linejoin="round"/>
<path d="M348.85 55.36L308.21 62.6133C307.576 62.7308 306.964 62.9468 306.397 63.2533L291.463 81.0668L257.863 91.9466C257.029 92.455 256.067 92.7141 255.09 92.6933H220.21C219.14 92.6999 218.097 93.035 217.223 93.6533L158.77 133.227C158.087 133.721 157.531 134.37 157.148 135.121C156.764 135.872 156.564 136.703 156.564 137.547C156.564 138.39 156.764 139.221 157.148 139.972C157.531 140.723 158.087 141.372 158.77 141.867L169.437 150.08C170.259 150.626 171.223 150.917 172.21 150.917C173.197 150.917 174.161 150.626 174.983 150.08L214.557 130.88C215.387 130.413 216.324 130.167 217.277 130.167C218.23 130.167 219.166 130.413 219.997 130.88L235.463 141.547C236.529 142.316 237.846 142.655 239.15 142.497C240.455 142.338 241.652 141.695 242.503 140.693L248.05 134.08C248.825 133.188 249.873 132.578 251.031 132.347C252.19 132.115 253.392 132.274 254.45 132.8L276.743 143.467C277.172 143.651 277.568 143.903 277.917 144.213L291.463 156.16C292.054 156.678 292.755 157.053 293.513 157.256C294.272 157.46 295.067 157.486 295.837 157.333L309.597 155.2C310.493 155.051 311.413 155.133 312.268 155.439C313.124 155.746 313.887 156.265 314.485 156.949C315.084 157.633 315.498 158.458 315.687 159.347C315.877 160.236 315.837 161.158 315.57 162.027L311.73 174.507C311.424 175.477 311.402 176.515 311.666 177.498C311.931 178.481 312.471 179.368 313.223 180.053L347.25 211.093C348.222 211.936 348.833 213.12 348.957 214.4L351.837 235.733C351.946 236.525 352.232 237.282 352.673 237.948C353.115 238.614 353.7 239.173 354.386 239.582C355.072 239.992 355.841 240.242 356.637 240.314C357.433 240.387 358.235 240.279 358.983 240L386.61 229.333C387.58 229.021 388.41 228.379 388.957 227.52L404.743 206.187C405.552 205.196 405.969 203.944 405.917 202.667L403.357 188.907C403.173 188.006 386.327 178.373 386.61 177.498C386.893 176.624 404.294 184.538 404.97 183.916C405.646 183.293 406.471 182.856 407.366 182.647C408.261 182.437 409.195 182.462 410.077 182.72L430.663 188.8C431.588 189.052 432.425 189.554 433.083 190.25C433.742 190.946 434.196 191.81 434.397 192.747L443.25 232.213C443.472 233.196 443.967 234.095 444.679 234.808C445.39 235.52 446.289 236.017 447.271 236.24C448.253 236.463 449.278 236.404 450.227 236.069C451.177 235.734 452.012 235.137 452.637 234.347L465.223 218.453C460.975 183.717 448.1 150.597 427.774 122.11C407.448 93.6232 380.315 70.6762 348.85 55.36Z" fill="#5FD212" stroke="#006B76" stroke-width="0.5" stroke-linecap="round" stroke-linejoin="round"/>
<path d="M242.859 64.9481L221.459 60.0365C220.122 59.6323 218.65 59.6323 217.313 60.0365L190.759 72.0426C189.909 72.3893 189.184 72.9094 188.656 73.5519C188.128 74.1944 187.815 74.9372 187.747 75.7076C187.68 76.4779 187.86 77.2494 188.27 77.9462C188.68 78.6431 189.306 79.2415 190.087 79.6828L198.266 84.5034C198.934 84.8663 199.684 85.1175 200.473 85.2424C201.261 85.3674 202.073 85.3635 202.86 85.231L226.277 80.6833H227.621L243.98 73.7707C245.106 73.3838 246.049 72.7138 246.672 71.8593C247.294 71.0047 247.562 70.0107 247.437 69.0232C247.311 68.0358 246.799 67.1071 245.975 66.3736C245.151 65.64 244.059 65.1404 242.859 64.9481Z" fill="#5FD212" stroke="#006B76" stroke-width="0.5" stroke-linecap="round" stroke-linejoin="round"/>
<path d="M294.86 175.11L263.52 178.082L232.993 175.11C231.646 175.078 230.313 174.826 229.047 174.364L204.727 164.87C203.238 164.272 201.634 164.016 200.033 164.124L169.653 159.11C163.879 159.514 141.367 167.842 138.593 178.082L116.193 201.777C114.262 203.781 113.19 206.46 113.207 209.244L113.207 227.377C113.221 229.106 113.656 244.673 114.474 246.196C115.291 247.72 116.467 249.022 117.9 249.99L138.593 264.07C140.669 265.443 143.159 266.047 145.633 265.777L187.127 261.83C189.245 261.566 190.987 261.735 193.295 262.912C195.604 264.09 199.504 266.93 200.533 268.8L208.053 291.377L225.1 316.337C226.425 318.746 226.769 321.574 226.06 324.23L221.047 343.43C220.654 344.887 220.574 346.41 220.813 347.899C221.052 349.388 221.604 350.81 222.433 352.07L247.393 389.724C248.524 391.456 250.135 392.822 252.029 393.656C253.923 394.489 256.018 394.754 258.06 394.417L291.02 389.51C292.573 389.284 294.058 388.717 295.367 387.85C296.676 386.983 297.778 385.838 298.593 384.497L329.847 332.657C330.753 330.914 323.726 326.194 323.659 324.23L331.127 298.204C331.126 296.663 331.46 295.141 332.105 293.741C332.749 292.342 333.689 291.098 334.86 290.097L361.42 267.057C362.628 266.056 363.6 264.801 364.267 263.381C364.935 261.962 365.281 260.412 365.281 258.844C365.281 257.275 364.935 255.726 364.267 254.306C363.6 252.886 362.628 251.631 361.42 250.63L344.587 240.177L327.52 223.11L310.647 212.764C309.358 211.825 308.297 210.61 307.54 209.207C306.783 207.804 306.35 206.249 306.273 204.657L307.54 188.977C307.429 186.223 304.244 179.991 302.255 178.082C300.267 176.173 297.616 175.108 294.86 175.11Z" fill="#5FD212" stroke="#006B76" stroke-width="0.5" stroke-linecap="round" stroke-linejoin="round"/>
<path d="M349.852 317.625L341.777 338.431C341.583 338.911 341.448 339.457 341.381 340.035C341.314 340.612 341.317 341.208 341.388 341.784L342.896 354.938C342.972 355.617 343.14 356.252 343.385 356.792C343.629 357.331 343.944 357.758 344.302 358.036C344.66 358.315 345.051 358.436 345.441 358.391C345.832 358.346 346.21 358.135 346.544 357.776L353.403 350.554C353.944 349.949 354.329 348.991 354.473 347.888L358.316 321.15C358.412 320.515 358.425 319.849 358.354 319.203C358.282 318.558 358.127 317.95 357.902 317.427C357.676 316.904 357.386 316.479 357.053 316.185C356.72 315.892 356.353 315.737 355.981 315.734H351.895C351.495 315.753 351.104 315.934 350.75 316.262C350.396 316.59 350.089 317.056 349.852 317.625Z" fill="#5FD212" stroke="#006B76" stroke-width="0.5" stroke-linecap="round" stroke-linejoin="round"/>
<path d="M330.197 138.679L324.528 148.044C324.286 148.442 324.211 148.864 324.308 149.28C324.405 149.695 324.673 150.094 325.091 150.448C325.51 150.803 326.069 151.103 326.73 151.329C327.39 151.555 328.136 151.701 328.913 151.756L352.873 153.583C353.798 153.636 354.732 153.565 355.592 153.375C356.451 153.186 357.208 152.884 357.793 152.498L365.815 146.788C366.322 146.443 366.67 146.04 366.831 145.61C366.992 145.181 366.963 144.737 366.744 144.315C366.526 143.893 366.124 143.504 365.573 143.18C365.022 142.855 364.335 142.605 363.569 142.448L337.363 136.738C336.657 136.587 335.899 136.518 335.139 136.536C334.379 136.554 331.884 137.418 331.206 137.602C331.682 137.285 330.527 137.785 331.206 137.602C330.73 137.918 330.386 138.286 330.197 138.679Z" fill="#02A7DA"/>
<path d="M331.206 137.602C331.884 137.418 334.379 136.554 335.139 136.536C335.899 136.518 336.657 136.587 337.363 136.738L363.569 142.448C364.335 142.605 365.022 142.855 365.573 143.18C366.124 143.504 366.526 143.893 366.744 144.315C366.963 144.737 366.992 145.181 366.831 145.61C366.67 146.04 366.322 146.443 365.815 146.788L357.793 152.498C357.208 152.884 356.451 153.186 355.592 153.375C354.732 153.565 353.798 153.636 352.873 153.583L328.913 151.756C328.136 151.701 327.39 151.555 326.73 151.329C326.069 151.103 325.51 150.803 325.091 150.448C324.673 150.094 324.405 149.695 324.308 149.28C324.211 148.864 324.286 148.442 324.528 148.044L330.197 138.679C330.386 138.286 330.73 137.918 331.206 137.602ZM331.206 137.602C330.527 137.785 331.682 137.285 331.206 137.602Z" stroke="#006B76" stroke-width="0.5" stroke-linecap="round" stroke-linejoin="round"/>
<path d="M358.4 427.502C328.877 436.23 297.667 438.098 267.27 432.956C236.873 427.813 208.134 415.804 183.355 397.889C158.575 379.974 138.444 356.652 124.573 329.79C110.702 302.928 103.478 273.273 103.478 243.2C103.478 213.127 110.702 183.472 124.573 156.61C138.444 129.748 158.575 106.426 183.355 88.5112C208.134 70.5963 236.873 58.5867 267.27 53.4444C297.667 48.3021 328.877 50.1699 358.4 58.8982C325.723 41.8398 289.067 33.3281 252.01 34.1933C214.952 35.0585 178.757 45.271 146.954 63.8348C115.152 82.3985 88.8286 108.68 70.5512 140.115C52.2739 171.551 42.6667 207.067 42.6667 243.2C42.6667 279.333 52.2739 314.849 70.5512 346.285C88.8286 377.72 115.152 404.002 146.954 422.565C178.757 441.129 214.952 451.342 252.01 452.207C289.067 453.072 325.723 444.56 358.4 427.502Z" fill="#00DEF7" fill-opacity="0.2"/>
</svg>
